<svg xmlns="http://www.w3.org/2000/svg" width="430" height="932" viewBox="0 0 430 932"><rect x="0" y="0" width="430" height="932" rx="0" fill="#0b0d10" stroke="none" /><rect x="8" y="8" width="414" height="916" rx="30" fill="#0b0d10" stroke="#343c47" /><rect x="20" y="24" width="390" height="88" rx="24" fill="#12161b" stroke="#343c47" /><text x="38" y="48" font-size="10" font-weight="700" fill="#8e99a4" text-anchor="start" font-family="Inter, Arial, sans-serif">QUIET MODE FOR LONG SESSIONS</text><text x="38" y="74" font-size="28" font-weight="700" fill="#f5f7fa" text-anchor="start" font-family="Inter, Arial, sans-serif">LifeOS Capture</text><text x="38" y="96" font-size="13" font-weight="500" fill="#8e99a4" text-anchor="start" font-family="Inter, Arial, sans-serif">Nocturne</text><rect x="338" y="46" width="56" height="34" rx="999" fill="transparent" stroke="#343c47" /><text x="366.0" y="68.0" font-size="13" font-weight="500" fill="#f5f7fa" text-anchor="middle" font-family="Inter, Arial, sans-serif">Vault</text><rect x="274" y="46" width="56" height="34" rx="999" fill="transparent" stroke="#343c47" /><text x="302.0" y="68.0" font-size="13" font-weight="500" fill="#f5f7fa" text-anchor="middle" font-family="Inter, Arial, sans-serif">Sync</text><rect x="210" y="46" width="64" height="34" rx="999" fill="transparent" stroke="#343c47" /><text x="242.0" y="68.0" font-size="13" font-weight="500" fill="#f5f7fa" text-anchor="middle" font-family="Inter, Arial, sans-serif">Vaults</text><rect x="20" y="124" width="390" height="112" rx="24" fill="#12161b" stroke="#343c47" /><text x="38" y="152" font-size="13" font-weight="400" fill="#8e99a4" text-anchor="start" font-family="Inter, Arial, sans-serif">A denser dark variant with restrained highlights</text><text x="38" y="170" font-size="13" font-weight="400" fill="#8e99a4" text-anchor="start" font-family="Inter, Arial, sans-serif">and strong contrast for focus.</text><rect x="38" y="188" width="76" height="34" rx="999" fill="#f0c15b" stroke="#f0c15b" /><text x="76.0" y="210.0" font-size="13" font-weight="700" fill="#231606" text-anchor="middle" font-family="Inter, Arial, sans-serif">Inbox</text><rect x="122" y="188" width="64" height="34" rx="999" fill="transparent" stroke="#343c47" /><text x="154.0" y="210.0" font-size="13" font-weight="500" fill="#f5f7fa" text-anchor="middle" font-family="Inter, Arial, sans-serif">Ask</text><rect x="334" y="188" width="74" height="34" rx="999" fill="#f0c15b" stroke="#f0c15b" /><text x="371.0" y="210.0" font-size="13" font-weight="700" fill="#231606" text-anchor="middle" font-family="Inter, Arial, sans-serif">Nocturne</text><rect x="252" y="188" width="62" height="34" rx="999" fill="transparent" stroke="#343c47" /><text x="283.0" y="210.0" font-size="13" font-weight="500" fill="#f5f7fa" text-anchor="middle" font-family="Inter, Arial, sans-serif">Atlas</text><rect x="182" y="188" width="62" height="34" rx="999" fill="transparent" stroke="#343c47" /><text x="213.0" y="210.0" font-size="13" font-weight="500" fill="#f5f7fa" text-anchor="middle" font-family="Inter, Arial, sans-serif">Ledger</text><rect x="112" y="188" width="62" height="34" rx="999" fill="transparent" stroke="#343c47" /><text x="143.0" y="210.0" font-size="13" font-weight="500" fill="#f5f7fa" text-anchor="middle" font-family="Inter, Arial, sans-serif">Signal</text><rect x="20" y="252" width="198" height="210" rx="24" fill="#12161b" stroke="#343c47" /><text x="36" y="280" font-size="18" font-weight="700" fill="#f5f7fa" text-anchor="start" font-family="Inter, Arial, sans-serif">Capture now</text><text x="36" y="300" font-size="12" font-weight="500" fill="#8e99a4" text-anchor="start" font-family="Inter, Arial, sans-serif">Common actions stay first.</text><rect x="36" y="318" width="166" height="34" rx="999" fill="transparent" stroke="#343c47" /><text x="119.0" y="340.0" font-size="13" font-weight="500" fill="#f5f7fa" text-anchor="middle" font-family="Inter, Arial, sans-serif">Voice</text><rect x="36" y="360" width="166" height="34" rx="999" fill="transparent" stroke="#343c47" /><text x="119.0" y="382.0" font-size="13" font-weight="500" fill="#f5f7fa" text-anchor="middle" font-family="Inter, Arial, sans-serif">Quick Note</text><rect x="36" y="402" width="166" height="34" rx="999" fill="#f0c15b" stroke="#f0c15b" /><text x="119.0" y="424.0" font-size="13" font-weight="700" fill="#231606" text-anchor="middle" font-family="Inter, Arial, sans-serif">Paste Link</text><rect x="36" y="444" width="79" height="30" rx="999" fill="transparent" stroke="#343c47" /><text x="75.5" y="464.0" font-size="13" font-weight="500" fill="#f5f7fa" text-anchor="middle" font-family="Inter, Arial, sans-serif">Attach file</text><rect x="123" y="444" width="79" height="30" rx="999" fill="transparent" stroke="#343c47" /><text x="162.5" y="464.0" font-size="13" font-weight="500" fill="#f5f7fa" text-anchor="middle" font-family="Inter, Arial, sans-serif">Add photo</text><rect x="36" y="444" width="166" height="34" rx="12" fill="#171c22" stroke="#343c47" /><text x="46" y="466" font-size="11" font-weight="500" fill="#8e99a4" text-anchor="start" font-family="Inter, Arial, sans-serif">https://example.com/permit-update</text><rect x="36" y="488" width="166" height="56" rx="16" fill="#171c22" stroke="#343c47" /><text x="46" y="514" font-size="12" font-weight="500" fill="#8e99a4" text-anchor="start" font-family="Inter, Arial, sans-serif">Permit note + why it matters</text><rect x="36" y="552" width="166" height="32" rx="999" fill="#f0c15b" stroke="#f0c15b" /><text x="119.0" y="573.0" font-size="13" font-weight="700" fill="#231606" text-anchor="middle" font-family="Inter, Arial, sans-serif">Save link</text><rect x="234" y="252" width="176" height="102" rx="22" fill="#12161b" stroke="#343c47" /><text x="250" y="274" font-size="17" font-weight="700" fill="#f5f7fa" text-anchor="start" font-family="Inter, Arial, sans-serif">Current Projects</text><text x="250" y="296" font-size="13" font-weight="400" fill="#8e99a4" text-anchor="start" font-family="Inter, Arial, sans-serif">Bathroom Remodel, Nutrition Reset,</text><text x="250" y="314" font-size="13" font-weight="400" fill="#8e99a4" text-anchor="start" font-family="Inter, Arial, sans-serif">Q2 Planning</text><rect x="250" y="318" width="74" height="24" rx="999" fill="#12161b" stroke="none" /><text x="287.0" y="334" font-size="11" font-weight="600" fill="#f5f7fa" text-anchor="middle" font-family="Inter, Arial, sans-serif">Bathroom</text><rect x="332" y="318" width="81" height="24" rx="999" fill="#12161b" stroke="none" /><text x="372.5" y="334" font-size="11" font-weight="600" fill="#f5f7fa" text-anchor="middle" font-family="Inter, Arial, sans-serif">Nutrition</text><rect x="234" y="368" width="176" height="102" rx="22" fill="#12161b" stroke="#343c47" /><text x="250" y="390" font-size="17" font-weight="700" fill="#f5f7fa" text-anchor="start" font-family="Inter, Arial, sans-serif">Topics In Motion</text><text x="250" y="412" font-size="13" font-weight="400" fill="#8e99a4" text-anchor="start" font-family="Inter, Arial, sans-serif">permits, meals, backlog cleanup,</text><text x="250" y="430" font-size="13" font-weight="400" fill="#8e99a4" text-anchor="start" font-family="Inter, Arial, sans-serif">relay sync</text><rect x="250" y="434" width="67" height="24" rx="999" fill="#12161b" stroke="none" /><text x="283.5" y="450" font-size="11" font-weight="600" fill="#f5f7fa" text-anchor="middle" font-family="Inter, Arial, sans-serif">Permits</text><rect x="325" y="434" width="54" height="24" rx="999" fill="#12161b" stroke="none" /><text x="352.0" y="450" font-size="11" font-weight="600" fill="#f5f7fa" text-anchor="middle" font-family="Inter, Arial, sans-serif">Meals</text><rect x="20" y="616" width="390" height="236" rx="24" fill="#12161b" stroke="#343c47" /><text x="36" y="642" font-size="11" font-weight="700" fill="#8e99a4" text-anchor="start" font-family="Inter, Arial, sans-serif">Recent stream</text><text x="36" y="664" font-size="18" font-weight="700" fill="#f5f7fa" text-anchor="start" font-family="Inter, Arial, sans-serif">Inbox Timeline</text><rect x="36" y="678" width="358" height="92" rx="22" fill="#171c22" stroke="#343c47" /><text x="52" y="700" font-size="11" font-weight="700" fill="#f0c15b" text-anchor="start" font-family="Inter, Arial, sans-serif">TEXT</text><text x="52" y="718" font-size="17" font-weight="700" fill="#f5f7fa" text-anchor="start" font-family="Inter, Arial, sans-serif">Bathroom remodel update</text><text x="52" y="740" font-size="13" font-weight="400" fill="#8e99a4" text-anchor="start" font-family="Inter, Arial, sans-serif">Waiting on permit approval. Next</text><text x="52" y="758" font-size="13" font-weight="400" fill="#8e99a4" text-anchor="start" font-family="Inter, Arial, sans-serif">step is confirm tile samples.</text><rect x="52" y="734" width="74" height="24" rx="999" fill="#12161b" stroke="none" /><text x="89.0" y="750" font-size="11" font-weight="600" fill="#f5f7fa" text-anchor="middle" font-family="Inter, Arial, sans-serif">Bathroom</text><rect x="134" y="734" width="54" height="24" rx="999" fill="#12161b" stroke="none" /><text x="161.0" y="750" font-size="11" font-weight="600" fill="#f5f7fa" text-anchor="middle" font-family="Inter, Arial, sans-serif">Edit</text><rect x="36" y="780" width="358" height="92" rx="22" fill="#171c22" stroke="#343c47" /><text x="52" y="802" font-size="11" font-weight="700" fill="#f0c15b" text-anchor="start" font-family="Inter, Arial, sans-serif">TEXT</text><text x="52" y="820" font-size="17" font-weight="700" fill="#f5f7fa" text-anchor="start" font-family="Inter, Arial, sans-serif">Protein target check-in</text><text x="52" y="842" font-size="13" font-weight="400" fill="#8e99a4" text-anchor="start" font-family="Inter, Arial, sans-serif">Meal prep slipped this week. Need</text><text x="52" y="860" font-size="13" font-weight="400" fill="#8e99a4" text-anchor="start" font-family="Inter, Arial, sans-serif">a simpler lunch plan.</text><rect x="52" y="836" width="81" height="24" rx="999" fill="#12161b" stroke="none" /><text x="92.5" y="852" font-size="11" font-weight="600" fill="#f5f7fa" text-anchor="middle" font-family="Inter, Arial, sans-serif">Nutrition</text></svg>