<svg xmlns="http://www.w3.org/2000/svg" width="430" height="932" viewBox="0 0 430 932"><rect x="0" y="0" width="430" height="932" rx="0" fill="#f3f4f1" stroke="none" /><rect x="8" y="8" width="414" height="916" rx="30" fill="#f3f4f1" stroke="#dde2d8" /><rect x="20" y="24" width="390" height="88" rx="24" fill="#ffffff" stroke="#dde2d8" /><text x="38" y="48" font-size="10" font-weight="700" fill="#647068" text-anchor="start" font-family="Inter, Arial, sans-serif">STRUCTURED PERSONAL RECORD</text><text x="38" y="74" font-size="28" font-weight="700" fill="#17201b" text-anchor="start" font-family="Inter, Arial, sans-serif">LifeOS Capture</text><text x="38" y="96" font-size="13" font-weight="500" fill="#647068" text-anchor="start" font-family="Inter, Arial, sans-serif">Ledger</text><rect x="338" y="46" width="56" height="34" rx="999" fill="transparent" stroke="#dde2d8" /><text x="366.0" y="68.0" font-size="13" font-weight="500" fill="#17201b" text-anchor="middle" font-family="Inter, Arial, sans-serif">Vault</text><rect x="274" y="46" width="56" height="34" rx="999" fill="transparent" stroke="#dde2d8" /><text x="302.0" y="68.0" font-size="13" font-weight="500" fill="#17201b" text-anchor="middle" font-family="Inter, Arial, sans-serif">Sync</text><rect x="210" y="46" width="64" height="34" rx="999" fill="transparent" stroke="#dde2d8" /><text x="242.0" y="68.0" font-size="13" font-weight="500" fill="#17201b" text-anchor="middle" font-family="Inter, Arial, sans-serif">Vaults</text><rect x="20" y="124" width="390" height="112" rx="24" fill="#ffffff" stroke="#dde2d8" /><text x="38" y="152" font-size="13" font-weight="400" fill="#647068" text-anchor="start" font-family="Inter, Arial, sans-serif">A clean notebook-like layout that feels</text><text x="38" y="170" font-size="13" font-weight="400" fill="#647068" text-anchor="start" font-family="Inter, Arial, sans-serif">reliable, quiet, and easy to scan.</text><rect x="38" y="188" width="76" height="34" rx="999" fill="transparent" stroke="#2c7a57" /><text x="76.0" y="210.0" font-size="13" font-weight="500" fill="#ffffff" text-anchor="middle" font-family="Inter, Arial, sans-serif">Inbox</text><rect x="122" y="188" width="64" height="34" rx="999" fill="#2c7a57" stroke="#2c7a57" /><text x="154.0" y="210.0" font-size="13" font-weight="700" fill="#ffffff" text-anchor="middle" font-family="Inter, Arial, sans-serif">Ask</text><rect x="334" y="188" width="74" height="34" rx="999" fill="transparent" stroke="#dde2d8" /><text x="371.0" y="210.0" font-size="13" font-weight="500" fill="#17201b" text-anchor="middle" font-family="Inter, Arial, sans-serif">Nocturne</text><rect x="252" y="188" width="62" height="34" rx="999" fill="transparent" stroke="#dde2d8" /><text x="283.0" y="210.0" font-size="13" font-weight="500" fill="#17201b" text-anchor="middle" font-family="Inter, Arial, sans-serif">Atlas</text><rect x="182" y="188" width="62" height="34" rx="999" fill="#2c7a57" stroke="#2c7a57" /><text x="213.0" y="210.0" font-size="13" font-weight="700" fill="#ffffff" text-anchor="middle" font-family="Inter, Arial, sans-serif">Ledger</text><rect x="112" y="188" width="62" height="34" rx="999" fill="transparent" stroke="#dde2d8" /><text x="143.0" y="210.0" font-size="13" font-weight="500" fill="#17201b" text-anchor="middle" font-family="Inter, Arial, sans-serif">Signal</text><rect x="20" y="252" width="198" height="164" rx="24" fill="#ffffff" stroke="#dde2d8" /><text x="36" y="280" font-size="18" font-weight="700" fill="#17201b" text-anchor="start" font-family="Inter, Arial, sans-serif">Capture now</text><text x="36" y="300" font-size="12" font-weight="500" fill="#647068" text-anchor="start" font-family="Inter, Arial, sans-serif">Common actions stay first.</text><rect x="36" y="318" width="166" height="34" rx="999" fill="transparent" stroke="#dde2d8" /><text x="119.0" y="340.0" font-size="13" font-weight="500" fill="#17201b" text-anchor="middle" font-family="Inter, Arial, sans-serif">Voice</text><rect x="36" y="360" width="166" height="34" rx="999" fill="transparent" stroke="#dde2d8" /><text x="119.0" y="382.0" font-size="13" font-weight="500" fill="#17201b" text-anchor="middle" font-family="Inter, Arial, sans-serif">Quick Note</text><rect x="36" y="402" width="166" height="34" rx="999" fill="transparent" stroke="#dde2d8" /><text x="119.0" y="424.0" font-size="13" font-weight="500" fill="#17201b" text-anchor="middle" font-family="Inter, Arial, sans-serif">Paste Link</text><rect x="36" y="444" width="79" height="30" rx="999" fill="transparent" stroke="#dde2d8" /><text x="75.5" y="464.0" font-size="13" font-weight="500" fill="#17201b" text-anchor="middle" font-family="Inter, Arial, sans-serif">Attach file</text><rect x="123" y="444" width="79" height="30" rx="999" fill="transparent" stroke="#dde2d8" /><text x="162.5" y="464.0" font-size="13" font-weight="500" fill="#17201b" text-anchor="middle" font-family="Inter, Arial, sans-serif">Add photo</text><rect x="234" y="252" width="176" height="102" rx="22" fill="#ffffff" stroke="#dde2d8" /><text x="250" y="274" font-size="17" font-weight="700" fill="#17201b" text-anchor="start" font-family="Inter, Arial, sans-serif">Current Projects</text><text x="250" y="296" font-size="13" font-weight="400" fill="#647068" text-anchor="start" font-family="Inter, Arial, sans-serif">Bathroom Remodel, Nutrition Reset,</text><text x="250" y="314" font-size="13" font-weight="400" fill="#647068" text-anchor="start" font-family="Inter, Arial, sans-serif">Q2 Planning</text><rect x="250" y="318" width="74" height="24" rx="999" fill="#ffffff" stroke="none" /><text x="287.0" y="334" font-size="11" font-weight="600" fill="#17201b" text-anchor="middle" font-family="Inter, Arial, sans-serif">Bathroom</text><rect x="332" y="318" width="81" height="24" rx="999" fill="#ffffff" stroke="none" /><text x="372.5" y="334" font-size="11" font-weight="600" fill="#17201b" text-anchor="middle" font-family="Inter, Arial, sans-serif">Nutrition</text><rect x="234" y="368" width="176" height="102" rx="22" fill="#ffffff" stroke="#dde2d8" /><text x="250" y="390" font-size="17" font-weight="700" fill="#17201b" text-anchor="start" font-family="Inter, Arial, sans-serif">Topics In Motion</text><text x="250" y="412" font-size="13" font-weight="400" fill="#647068" text-anchor="start" font-family="Inter, Arial, sans-serif">permits, meals, backlog cleanup,</text><text x="250" y="430" font-size="13" font-weight="400" fill="#647068" text-anchor="start" font-family="Inter, Arial, sans-serif">relay sync</text><rect x="250" y="434" width="67" height="24" rx="999" fill="#ffffff" stroke="none" /><text x="283.5" y="450" font-size="11" font-weight="600" fill="#17201b" text-anchor="middle" font-family="Inter, Arial, sans-serif">Permits</text><rect x="325" y="434" width="54" height="24" rx="999" fill="#ffffff" stroke="none" /><text x="352.0" y="450" font-size="11" font-weight="600" fill="#17201b" text-anchor="middle" font-family="Inter, Arial, sans-serif">Meals</text><rect x="20" y="252" width="390" height="388" rx="24" fill="#ffffff" stroke="#dde2d8" /><rect x="36" y="270" width="358" height="78" rx="18" fill="#fbfbf9" stroke="#dde2d8" /><text x="48" y="296" font-size="14" font-weight="600" fill="#17201b" text-anchor="start" font-family="Inter, Arial, sans-serif">What are we waiting on with Bathroom Remodel</text><text x="48" y="314" font-size="14" font-weight="600" fill="#17201b" text-anchor="start" font-family="Inter, Arial, sans-serif">Project?</text><rect x="36" y="358" width="358" height="34" rx="999" fill="#2c7a57" stroke="#2c7a57" /><text x="215.0" y="380.0" font-size="13" font-weight="700" fill="#ffffff" text-anchor="middle" font-family="Inter, Arial, sans-serif">Run query</text><rect x="36" y="406" width="358" height="82" rx="18" fill="#2c7a57" stroke="#2c7a57" fill-opacity="0.14"/><text x="48" y="436" font-size="13" font-weight="400" fill="#17201b" text-anchor="start" font-family="Inter, Arial, sans-serif">Still waiting on the plumber estimate and</text><text x="48" y="454" font-size="13" font-weight="400" fill="#17201b" text-anchor="start" font-family="Inter, Arial, sans-serif">permit confirmation. Tile samples are ready</text><text x="48" y="472" font-size="13" font-weight="400" fill="#17201b" text-anchor="start" font-family="Inter, Arial, sans-serif">once those unblock.</text><rect x="36" y="502" width="358" height="112" rx="22" fill="#fbfbf9" stroke="#dde2d8" /><text x="52" y="524" font-size="11" font-weight="700" fill="#2c7a57" text-anchor="start" font-family="Inter, Arial, sans-serif">RECENT STREAM</text><text x="52" y="542" font-size="17" font-weight="700" fill="#17201b" text-anchor="start" font-family="Inter, Arial, sans-serif">Matched entries</text><text x="52" y="564" font-size="13" font-weight="400" fill="#647068" text-anchor="start" font-family="Inter, Arial, sans-serif">Bathroom remodel update. Waiting</text><text x="52" y="582" font-size="13" font-weight="400" fill="#647068" text-anchor="start" font-family="Inter, Arial, sans-serif">on permit approval. Next step is</text><text x="52" y="600" font-size="13" font-weight="400" fill="#647068" text-anchor="start" font-family="Inter, Arial, sans-serif">confirm tile samples.</text><rect x="52" y="578" width="67" height="24" rx="999" fill="#ffffff" stroke="none" /><text x="85.5" y="594" font-size="11" font-weight="600" fill="#17201b" text-anchor="middle" font-family="Inter, Arial, sans-serif">Project</text><rect x="127" y="578" width="88" height="24" rx="999" fill="#ffffff" stroke="none" /><text x="171.0" y="594" font-size="11" font-weight="600" fill="#17201b" text-anchor="middle" font-family="Inter, Arial, sans-serif">Waiting on</text></svg>