<svg xmlns="http://www.w3.org/2000/svg" width="430" height="932" viewBox="0 0 430 932"><rect x="0" y="0" width="430" height="932" rx="0" fill="#f3f4f1" stroke="none" /><rect x="8" y="8" width="414" height="916" rx="30" fill="#f3f4f1" stroke="#dde2d8" /><rect x="20" y="24" width="390" height="88" rx="24" fill="#ffffff" stroke="#dde2d8" /><text x="38" y="48" font-size="10" font-weight="700" fill="#647068" text-anchor="start" font-family="Inter, Arial, sans-serif">STRUCTURED PERSONAL RECORD</text><text x="38" y="74" font-size="28" font-weight="700" fill="#17201b" text-anchor="start" font-family="Inter, Arial, sans-serif">LifeOS Capture</text><text x="38" y="96" font-size="13" font-weight="500" fill="#647068" text-anchor="start" font-family="Inter, Arial, sans-serif">Ledger</text><rect x="338" y="46" width="56" height="34" rx="999" fill="transparent" stroke="#dde2d8" /><text x="366.0" y="68.0" font-size="13" font-weight="500" fill="#17201b" text-anchor="middle" font-family="Inter, Arial, sans-serif">Vault</text><rect x="274" y="46" width="56" height="34" rx="999" fill="transparent" stroke="#dde2d8" /><text x="302.0" y="68.0" font-size="13" font-weight="500" fill="#17201b" text-anchor="middle" font-family="Inter, Arial, sans-serif">Sync</text><rect x="210" y="46" width="64" height="34" rx="999" fill="transparent" stroke="#dde2d8" /><text x="242.0" y="68.0" font-size="13" font-weight="500" fill="#17201b" text-anchor="middle" font-family="Inter, Arial, sans-serif">Vaults</text><rect x="20" y="124" width="390" height="112" rx="24" fill="#ffffff" stroke="#dde2d8" /><text x="38" y="152" font-size="13" font-weight="400" fill="#647068" text-anchor="start" font-family="Inter, Arial, sans-serif">A clean notebook-like layout that feels</text><text x="38" y="170" font-size="13" font-weight="400" fill="#647068" text-anchor="start" font-family="Inter, Arial, sans-serif">reliable, quiet, and easy to scan.</text><rect x="38" y="188" width="76" height="34" rx="999" fill="#2c7a57" stroke="#2c7a57" /><text x="76.0" y="210.0" font-size="13" font-weight="700" fill="#ffffff" text-anchor="middle" font-family="Inter, Arial, sans-serif">Inbox</text><rect x="122" y="188" width="64" height="34" rx="999" fill="transparent" stroke="#dde2d8" /><text x="154.0" y="210.0" font-size="13" font-weight="500" fill="#17201b" text-anchor="middle" font-family="Inter, Arial, sans-serif">Ask</text><rect x="334" y="188" width="74" height="34" rx="999" fill="transparent" stroke="#dde2d8" /><text x="371.0" y="210.0" font-size="13" font-weight="500" fill="#17201b" text-anchor="middle" font-family="Inter, Arial, sans-serif">Nocturne</text><rect x="252" y="188" width="62" height="34" rx="999" fill="transparent" stroke="#dde2d8" /><text x="283.0" y="210.0" font-size="13" font-weight="500" fill="#17201b" text-anchor="middle" font-family="Inter, Arial, sans-serif">Atlas</text><rect x="182" y="188" width="62" height="34" rx="999" fill="#2c7a57" stroke="#2c7a57" /><text x="213.0" y="210.0" font-size="13" font-weight="700" fill="#ffffff" text-anchor="middle" font-family="Inter, Arial, sans-serif">Ledger</text><rect x="112" y="188" width="62" height="34" rx="999" fill="transparent" stroke="#dde2d8" /><text x="143.0" y="210.0" font-size="13" font-weight="500" fill="#17201b" text-anchor="middle" font-family="Inter, Arial, sans-serif">Signal</text><rect x="20" y="252" width="198" height="164" rx="24" fill="#ffffff" stroke="#dde2d8" /><text x="36" y="280" font-size="18" font-weight="700" fill="#17201b" text-anchor="start" font-family="Inter, Arial, sans-serif">Capture now</text><text x="36" y="300" font-size="12" font-weight="500" fill="#647068" text-anchor="start" font-family="Inter, Arial, sans-serif">Common actions stay first.</text><rect x="36" y="318" width="166" height="34" rx="999" fill="transparent" stroke="#dde2d8" /><text x="119.0" y="340.0" font-size="13" font-weight="500" fill="#17201b" text-anchor="middle" font-family="Inter, Arial, sans-serif">Voice</text><rect x="36" y="360" width="166" height="34" rx="999" fill="transparent" stroke="#dde2d8" /><text x="119.0" y="382.0" font-size="13" font-weight="500" fill="#17201b" text-anchor="middle" font-family="Inter, Arial, sans-serif">Quick Note</text><rect x="36" y="402" width="166" height="34" rx="999" fill="transparent" stroke="#dde2d8" /><text x="119.0" y="424.0" font-size="13" font-weight="500" fill="#17201b" text-anchor="middle" font-family="Inter, Arial, sans-serif">Paste Link</text><rect x="36" y="444" width="79" height="30" rx="999" fill="transparent" stroke="#dde2d8" /><text x="75.5" y="464.0" font-size="13" font-weight="500" fill="#17201b" text-anchor="middle" font-family="Inter, Arial, sans-serif">Attach file</text><rect x="123" y="444" width="79" height="30" rx="999" fill="transparent" stroke="#dde2d8" /><text x="162.5" y="464.0" font-size="13" font-weight="500" fill="#17201b" text-anchor="middle" font-family="Inter, Arial, sans-serif">Add photo</text><rect x="20" y="432" width="390" height="236" rx="24" fill="#ffffff" stroke="#dde2d8" /><text x="36" y="458" font-size="11" font-weight="700" fill="#647068" text-anchor="start" font-family="Inter, Arial, sans-serif">Recent stream</text><text x="36" y="480" font-size="18" font-weight="700" fill="#17201b" text-anchor="start" font-family="Inter, Arial, sans-serif">Inbox Timeline</text><rect x="36" y="494" width="358" height="92" rx="22" fill="#fbfbf9" stroke="#dde2d8" /><text x="52" y="516" font-size="11" font-weight="700" fill="#2c7a57" text-anchor="start" font-family="Inter, Arial, sans-serif">TEXT</text><text x="52" y="534" font-size="17" font-weight="700" fill="#17201b" text-anchor="start" font-family="Inter, Arial, sans-serif">Bathroom remodel update</text><text x="52" y="556" font-size="13" font-weight="400" fill="#647068" text-anchor="start" font-family="Inter, Arial, sans-serif">Waiting on permit approval. Next</text><text x="52" y="574" font-size="13" font-weight="400" fill="#647068" text-anchor="start" font-family="Inter, Arial, sans-serif">step is confirm tile samples.</text><rect x="52" y="550" width="74" height="24" rx="999" fill="#ffffff" stroke="none" /><text x="89.0" y="566" font-size="11" font-weight="600" fill="#17201b" text-anchor="middle" font-family="Inter, Arial, sans-serif">Bathroom</text><rect x="134" y="550" width="54" height="24" rx="999" fill="#ffffff" stroke="none" /><text x="161.0" y="566" font-size="11" font-weight="600" fill="#17201b" text-anchor="middle" font-family="Inter, Arial, sans-serif">Edit</text><rect x="36" y="596" width="358" height="92" rx="22" fill="#fbfbf9" stroke="#dde2d8" /><text x="52" y="618" font-size="11" font-weight="700" fill="#2c7a57" text-anchor="start" font-family="Inter, Arial, sans-serif">TEXT</text><text x="52" y="636" font-size="17" font-weight="700" fill="#17201b" text-anchor="start" font-family="Inter, Arial, sans-serif">Protein target check-in</text><text x="52" y="658" font-size="13" font-weight="400" fill="#647068" text-anchor="start" font-family="Inter, Arial, sans-serif">Meal prep slipped this week. Need</text><text x="52" y="676" font-size="13" font-weight="400" fill="#647068" text-anchor="start" font-family="Inter, Arial, sans-serif">a simpler lunch plan.</text><rect x="52" y="652" width="81" height="24" rx="999" fill="#ffffff" stroke="none" /><text x="92.5" y="668" font-size="11" font-weight="600" fill="#17201b" text-anchor="middle" font-family="Inter, Arial, sans-serif">Nutrition</text><rect x="0" y="0" width="430" height="932" rx="0" fill="#000000" stroke="none" fill-opacity="0.45"/><rect x="12" y="360" width="406" height="320" rx="26" fill="#ffffff" stroke="#dde2d8" /><text x="30" y="392" font-size="20" font-weight="700" fill="#17201b" text-anchor="start" font-family="Inter, Arial, sans-serif">Edit entry text</text><rect x="28" y="424" width="374" height="146" rx="18" fill="#fbfbf9" stroke="#dde2d8" /><text x="42" y="454" font-size="13" font-weight="400" fill="#647068" text-anchor="start" font-family="Inter, Arial, sans-serif">Bathroom remodel update. Waiting on</text><text x="42" y="472" font-size="13" font-weight="400" fill="#647068" text-anchor="start" font-family="Inter, Arial, sans-serif">permit approval. Next step is confirm</text><text x="42" y="490" font-size="13" font-weight="400" fill="#647068" text-anchor="start" font-family="Inter, Arial, sans-serif">tile samples.</text><rect x="28" y="586" width="374" height="34" rx="999" fill="#2c7a57" stroke="#2c7a57" /><text x="215.0" y="608.0" font-size="13" font-weight="700" fill="#ffffff" text-anchor="middle" font-family="Inter, Arial, sans-serif">Append correction</text></svg>